<svg xmlns="http://www.w3.org/2000/svg" width="260" height="220" viewBox="0 0 260 220" fill="none">
  <path d="M120 196C146 147 161 94 164 37" stroke="#A7CBBB" stroke-width="2" stroke-linecap="round"/>
  <path d="M165 82C202 69 225 42 235 12C198 21 173 45 165 82Z" fill="#6EE7B7" fill-opacity="0.16" stroke="#A7CBBB" stroke-width="1.5"/>
  <path d="M151 126C112 117 82 93 66 60C106 60 138 84 151 126Z" fill="#6EE7B7" fill-opacity="0.12" stroke="#A7CBBB" stroke-width="1.5"/>
  <path d="M135 167C174 160 205 138 226 104C184 101 151 125 135 167Z" fill="#6EE7B7" fill-opacity="0.12" stroke="#A7CBBB" stroke-width="1.5"/>
  <rect x="25" y="64" width="94" height="126" rx="18" fill="#12211C" fill-opacity="0.58" stroke="#A7CBBB" stroke-opacity="0.4"/>
  <path d="M49 100H96M49 124H92M49 148H84" stroke="#A7CBBB" stroke-opacity="0.55" stroke-width="2" stroke-linecap="round"/>
  <path d="M43 40L48 51L59 56L48 61L43 72L38 61L27 56L38 51L43 40Z" fill="#6EE7B7" fill-opacity="0.55"/>
  <path d="M214 172L218 181L227 185L218 189L214 198L210 189L201 185L210 181L214 172Z" fill="#F8C27A" fill-opacity="0.55"/>
</svg>
