<svg xmlns="http://www.w3.org/2000/svg" width="96" height="96" viewBox="0 0 96 96" fill="none">
  <rect width="96" height="96" rx="24" fill="#142820"/>
  <path d="M48 18C54 31 54 41 48 54C42 41 42 31 48 18Z" stroke="#F8C27A" stroke-width="2.5" stroke-linejoin="round"/>
  <path d="M48 54C35 48 27 40 22 27C36 30 44 39 48 54Z" stroke="#E7F1EC" stroke-opacity="0.82" stroke-width="2.5" stroke-linejoin="round"/>
  <path d="M48 54C61 48 69 40 74 27C60 30 52 39 48 54Z" stroke="#E7F1EC" stroke-opacity="0.82" stroke-width="2.5" stroke-linejoin="round"/>
  <path d="M48 54C36 62 28 67 20 78C34 78 43 71 48 54Z" stroke="#6EE7B7" stroke-opacity="0.8" stroke-width="2.5" stroke-linejoin="round"/>
  <path d="M48 54C60 62 68 67 76 78C62 78 53 71 48 54Z" stroke="#6EE7B7" stroke-opacity="0.8" stroke-width="2.5" stroke-linejoin="round"/>
</svg>
